<svg width="18" height="18" viewBox="0 0 18 18" fill="none" xmlns="http://www.w3.org/2000/svg">
<path d="M14.75 4.75H6.75C5.64543 4.75 4.75 5.64543 4.75 6.75V14.75C4.75 15.8546 5.64543 16.75 6.75 16.75H14.75C15.8546 16.75 16.75 15.8546 16.75 14.75V6.75C16.75 5.64543 15.8546 4.75 14.75 4.75Z" stroke="#737373" stroke-width="1.5" stroke-linecap="round" stroke-linejoin="round"/>
<path d="M12.75 4.75V2.75C12.75 2.21957 12.5393 1.71086 12.1642 1.33579C11.7891 0.960714 11.2804 0.75 10.75 0.75H2.75C2.21957 0.75 1.71086 0.960714 1.33579 1.33579C0.960714 1.71086 0.75 2.21957 0.75 2.75V10.75C0.75 11.2804 0.960714 11.7891 1.33579 12.1642C1.71086 12.5393 2.21957 12.75 2.75 12.75H4.75" stroke="#737373" stroke-width="1.5" stroke-linecap="round" stroke-linejoin="round"/>
</svg>
