<svg width="25" height="25" viewBox="0 0 25 25" fill="none" xmlns="http://www.w3.org/2000/svg">
<path d="M1.5 22.5061H23.5" stroke="#262626" stroke-width="1.5" stroke-miterlimit="10" stroke-linecap="round" stroke-linejoin="round"/>
<path d="M20.2803 22.5162V18.0562" stroke="#262626" stroke-width="1.5" stroke-miterlimit="10" stroke-linecap="round" stroke-linejoin="round"/>
<path d="M20.2996 11.396C19.0796 11.396 18.0996 12.376 18.0996 13.596V15.866C18.0996 17.086 19.0796 18.066 20.2996 18.066C21.5196 18.066 22.4996 17.086 22.4996 15.866V13.596C22.4996 12.376 21.5196 11.396 20.2996 11.396Z" stroke="#262626" stroke-width="1.5" stroke-miterlimit="10" stroke-linecap="round" stroke-linejoin="round"/>
<path d="M2.59961 22.5061V6.53613C2.59961 4.52613 3.59966 3.51611 5.58966 3.51611H11.8196C13.8096 3.51611 14.7996 4.52613 14.7996 6.53613V22.5061" stroke="#262626" stroke-width="1.5" stroke-miterlimit="10" stroke-linecap="round" stroke-linejoin="round"/>
<path d="M6.2998 8.7561H11.2498" stroke="#262626" stroke-width="1.5" stroke-miterlimit="10" stroke-linecap="round" stroke-linejoin="round"/>
<path d="M6.2998 12.5061H11.2498" stroke="#262626" stroke-width="1.5" stroke-miterlimit="10" stroke-linecap="round" stroke-linejoin="round"/>
<path d="M8.75 22.5061V18.7561" stroke="#262626" stroke-width="1.5" stroke-miterlimit="10" stroke-linecap="round" stroke-linejoin="round"/>
</svg>
