<svg width="24" height="25" viewBox="0 0 24 25" fill="none" xmlns="http://www.w3.org/2000/svg">
<path d="M3 3.33301L21 21.333" stroke="#404040" stroke-width="1.5" stroke-linecap="round" stroke-linejoin="round"/>
<path d="M10.584 10.9199C10.2087 11.2949 9.99775 11.8037 9.99756 12.3342C9.99737 12.8648 10.2079 13.3736 10.583 13.7489C10.958 14.1242 11.4667 14.3351 11.9973 14.3353C12.5278 14.3355 13.0367 14.1249 13.412 13.7499" stroke="#404040" stroke-width="1.5" stroke-linecap="round" stroke-linejoin="round"/>
<path d="M9.363 5.69807C10.2204 5.45279 11.1082 5.32991 12 5.33307C16 5.33307 19.333 7.66607 22 12.3331C21.222 13.6941 20.388 14.8571 19.497 15.8211M17.357 17.6821C15.726 18.7821 13.942 19.3331 12 19.3331C8 19.3331 4.667 17.0001 2 12.3331C3.369 9.93807 4.913 8.15807 6.632 6.99207" stroke="#404040" stroke-width="1.5" stroke-linecap="round" stroke-linejoin="round"/>
</svg>
