<svg width="24" height="24" viewBox="0 0 24 24" fill="none" xmlns="http://www.w3.org/2000/svg">
<path d="M21.66 10.4385L20.68 14.6185C19.84 18.2285 18.18 19.6885 15.06 19.3885C14.56 19.3485 14.02 19.2585 13.44 19.1185L11.76 18.7185C7.59 17.7285 6.3 15.6685 7.28 11.4885L8.26 7.29854C8.46 6.44854 8.7 5.70854 9 5.09854C10.17 2.67854 12.16 2.02854 15.5 2.81854L17.17 3.20854C21.36 4.18854 22.64 6.25854 21.66 10.4385Z" stroke="#737373" stroke-width="1.5" stroke-linecap="round" stroke-linejoin="round"/>
<path d="M15.06 19.3916C14.44 19.8116 13.66 20.1616 12.71 20.4716L11.13 20.9916C7.16001 22.2716 5.07001 21.2016 3.78001 17.2316L2.50001 13.2816C1.22001 9.31156 2.28001 7.21156 6.25001 5.93156L7.83001 5.41156C8.24001 5.28156 8.63001 5.17156 9.00001 5.10156C8.70001 5.71156 8.46001 6.45156 8.26001 7.30156L7.28001 11.4916C6.30001 15.6716 7.59001 17.7316 11.76 18.7216L13.44 19.1216C14.02 19.2616 14.56 19.3516 15.06 19.3916Z" stroke="#737373" stroke-width="1.5" stroke-linecap="round" stroke-linejoin="round"/>
<path d="M12.64 8.53125L17.49 9.76125" stroke="#737373" stroke-width="1.5" stroke-linecap="round" stroke-linejoin="round"/>
<path d="M11.66 12.3984L14.56 13.1384" stroke="#292D32" stroke-width="1.5" stroke-linecap="round" stroke-linejoin="round"/>
</svg>
