<svg width="40" height="40" viewBox="0 0 40 40" fill="none" xmlns="http://www.w3.org/2000/svg">
<rect width="40" height="40" rx="20" fill="#FEF9C2"/>
<path d="M25 29H15C11 29 10 28 10 24V16C10 12 11 11 15 11H25C29 11 30 12 30 16V24C30 28 29 29 25 29Z" stroke="#D08700" stroke-width="1.5" stroke-linecap="round" stroke-linejoin="round"/>
<path d="M22 16H27" stroke="#D08700" stroke-width="1.5" stroke-linecap="round" stroke-linejoin="round"/>
<path d="M23 20H27" stroke="#D08700" stroke-width="1.5" stroke-linecap="round" stroke-linejoin="round"/>
<path d="M25 24H27" stroke="#D08700" stroke-width="1.5" stroke-linecap="round" stroke-linejoin="round"/>
<path d="M16.4999 19.2899C17.4996 19.2899 18.3099 18.4796 18.3099 17.4799C18.3099 16.4803 17.4996 15.6699 16.4999 15.6699C15.5003 15.6699 14.6899 16.4803 14.6899 17.4799C14.6899 18.4796 15.5003 19.2899 16.4999 19.2899Z" stroke="#D08700" stroke-width="1.5" stroke-linecap="round" stroke-linejoin="round"/>
<path d="M20 24.33C19.86 22.88 18.71 21.74 17.26 21.61C16.76 21.56 16.25 21.56 15.74 21.61C14.29 21.75 13.14 22.88 13 24.33" stroke="#D08700" stroke-width="1.5" stroke-linecap="round" stroke-linejoin="round"/>
</svg>
