<svg width="24" height="24" viewBox="0 0 24 24" fill="none" xmlns="http://www.w3.org/2000/svg">
<path opacity="0.4" d="M4.11816 3.16992H4.12012C6.13942 3.33351 9.24206 4.36746 10.9551 5.43555L10.9629 5.44043L11.2129 5.59082C11.3024 5.64452 11.4002 5.68359 11.5 5.7168V20.6523C9.5018 19.6085 6.24988 18.5535 4.0957 18.2656L3.80859 18.2266L3.80176 18.2256L3.6709 18.2021C3.02382 18.0516 2.5 17.4084 2.5 16.7412V4.66211C2.5 3.76272 3.22183 3.0946 4.11816 3.16992Z" fill="#248C82" stroke="#248C82"/>
<path d="M22 4.66954V16.7395C22 17.6995 21.22 18.5995 20.26 18.7195L19.93 18.7595C17.75 19.0495 14.39 20.1595 12.47 21.2195C12.34 21.2995 12.18 21.3295 12 21.3295V5.29954C12.19 5.29954 12.38 5.24954 12.53 5.15954L12.7 5.04954C14.48 3.92954 17.67 2.85954 19.77 2.67954H19.83C21.02 2.57954 22 3.46954 22 4.66954Z" fill="#248C82"/>
<path d="M7.75 9.23828H5.5C5.09 9.23828 4.75 8.89828 4.75 8.48828C4.75 8.07828 5.09 7.73828 5.5 7.73828H7.75C8.16 7.73828 8.5 8.07828 8.5 8.48828C8.5 8.89828 8.16 9.23828 7.75 9.23828Z" fill="#248C82"/>
<path d="M8.5 12.2383H5.5C5.09 12.2383 4.75 11.8983 4.75 11.4883C4.75 11.0783 5.09 10.7383 5.5 10.7383H8.5C8.91 10.7383 9.25 11.0783 9.25 11.4883C9.25 11.8983 8.91 12.2383 8.5 12.2383Z" fill="#248C82"/>
</svg>
