<svg width="24" height="24" viewBox="0 0 24 24" fill="none" xmlns="http://www.w3.org/2000/svg">
<path d="M8.16895 3.15552C8.67034 2.81876 9.32966 2.81876 9.83105 3.15552H9.83203L13.832 5.82642L13.834 5.82739C14.2525 6.10394 14.5 6.56684 14.5 7.07056V12.7502H3.5V7.07056C3.5 6.57174 3.75266 6.10496 4.16699 5.82544L4.16797 5.82642L8.16797 3.15552H8.16895ZM9 6.75024C7.76386 6.75024 6.75 7.7641 6.75 9.00024C6.75009 10.2363 7.76391 11.2502 9 11.2502C10.2361 11.2502 11.2499 10.2363 11.25 9.00024C11.25 7.7641 10.2361 6.75024 9 6.75024Z" fill="#248C82" stroke="#248C82"/>
<path d="M9 17C8.3139 17 7.75006 17.5639 7.75 18.25V21.75H10.25V18.25C10.2499 17.5639 9.6861 17 9 17ZM19.7197 17.8838L19.3828 17.7676C18.6441 17.5134 18.1104 16.8156 18.1104 16V14C18.1104 12.9662 18.9564 12.1201 19.9902 12.1201C21.0239 12.1202 21.8701 12.9663 21.8701 14V16C21.8701 16.8247 21.3277 17.5287 20.5752 17.7744L20.2305 17.8877V21.75H22C22.1338 21.75 22.2499 21.8662 22.25 22C22.25 22.1339 22.1339 22.25 22 22.25H20.0303C20.0125 22.25 19.9955 22.2534 19.9795 22.2549C19.9637 22.2535 19.9471 22.25 19.9297 22.25H2C1.86614 22.25 1.75 22.1339 1.75 22C1.75007 21.8662 1.86618 21.75 2 21.75H3.5V15.25H14.5V21.75H19.7197V17.8838Z" fill="#248C82" stroke="#248C82"/>
</svg>
