<svg width="40" height="40" viewBox="0 0 40 40" fill="none" xmlns="http://www.w3.org/2000/svg">
<rect width="40" height="40" rx="20" fill="#FFF1F2"/>
<path d="M30.47 26.8199L29.47 22.9599L26.32 11.3699C26.2519 11.1142 26.0853 10.896 25.8567 10.7629C25.628 10.6298 25.3559 10.5928 25.1 10.6599L21.23 11.6599C21.1376 11.5576 21.0251 11.4754 20.8995 11.4186C20.7739 11.3618 20.6379 11.3316 20.5 11.3299H10.5C10.2348 11.3299 9.98043 11.4353 9.79289 11.6228C9.60536 11.8103 9.5 12.0647 9.5 12.3299V28.3299C9.5 28.5951 9.60536 28.8495 9.79289 29.037C9.98043 29.2246 10.2348 29.3299 10.5 29.3299H20.5C20.7652 29.3299 21.0196 29.2246 21.2071 29.037C21.3946 28.8495 21.5 28.5951 21.5 28.3299V20.3299L23.7 28.5499C23.7586 28.7681 23.8893 28.96 24.0709 29.0943C24.2525 29.2287 24.4742 29.2976 24.7 29.2899C24.7864 29.2997 24.8736 29.2997 24.96 29.2899L29.79 27.9999C29.9177 27.9658 30.0374 27.9067 30.1421 27.826C30.2468 27.7453 30.3344 27.6447 30.4 27.5299C30.5055 27.3087 30.5302 27.0575 30.47 26.8199ZM14.47 27.3699H11.47V25.3699H14.47V27.3699ZM14.47 23.3699H11.47V17.3699H14.47V23.3699ZM14.47 15.3699H11.47V13.3699H14.47V15.3699ZM19.47 27.3699H16.47V25.3699H19.47V27.3699ZM19.47 23.3699H16.47V17.3699H19.47V23.3699ZM19.47 15.3699H16.47V13.3699H19.47V15.3699ZM21.72 13.6299L24.62 12.8499L25.14 14.7799L22.24 15.5599L21.72 13.6299ZM24.31 23.2899L22.76 17.4899L25.66 16.7099L27.21 22.5099L24.31 23.2899ZM25.31 27.1499L24.79 25.2199L27.69 24.4399L28.21 26.3699L25.31 27.1499Z" fill="#EC003F"/>
</svg>
