<svg width="208" height="241" viewBox="0 0 208 241" fill="none" xmlns="http://www.w3.org/2000/svg">
<g clip-path="url(#clip0_269_40248)">
<path d="M149.067 37.0542C198.77 65.44 220.941 131.161 198.585 183.851C176.229 236.541 117.81 256.244 68.1078 227.865C18.3985 199.479 -3.77276 133.759 18.5899 81.0686C40.9458 28.3785 99.3649 8.67532 149.067 37.0542Z" fill="#F0FCFB"/>
<path d="M163.923 67.9473H7.65111C3.81492 67.9473 0.705078 71.0571 0.705078 74.8933V173.129C0.705078 176.965 3.81492 180.075 7.65111 180.075H163.923C167.759 180.075 170.869 176.965 170.869 173.129V74.8933C170.869 71.0571 167.759 67.9473 163.923 67.9473Z" fill="#E8FAF9"/>
<path d="M163.923 67.9473H7.65111C3.81575 67.9473 0.705078 71.0579 0.705078 74.8933V81.7163H170.869V74.8933C170.869 71.0579 167.759 67.9473 163.923 67.9473Z" fill="#18655D"/>
<path d="M142.64 77.5103C144 77.5103 145.102 76.4084 145.102 75.0491C145.102 73.6898 144 72.5879 142.64 72.5879C141.281 72.5879 140.179 73.6898 140.179 75.0491C140.179 76.4084 141.281 77.5103 142.64 77.5103Z" stroke="black" stroke-width="0.683665" stroke-linejoin="round"/>
<path d="M151.835 77.5103C153.194 77.5103 154.296 76.4084 154.296 75.0491C154.296 73.6898 153.194 72.5879 151.835 72.5879C150.476 72.5879 149.374 73.6898 149.374 75.0491C149.374 76.4084 150.476 77.5103 151.835 77.5103Z" stroke="black" stroke-width="0.683665" stroke-linejoin="round"/>
<path d="M161.031 77.5103C162.391 77.5103 163.492 76.4084 163.492 75.0491C163.492 73.6898 162.391 72.5879 161.031 72.5879C159.672 72.5879 158.57 73.6898 158.57 75.0491C158.57 76.4084 159.672 77.5103 161.031 77.5103Z" stroke="black" stroke-width="0.683665" stroke-linejoin="round"/>
<path d="M70.4813 102.307C68.5397 102.307 66.6664 101.008 65.176 99.7708L63.3643 98.2599C62.2431 97.3233 60.91 96.8242 59.5426 96.8242H44.0781C42.6766 96.8242 41.5349 97.9591 41.5349 99.3675V156.337C41.5349 158.224 43.0595 159.749 44.9464 159.749H123.028C124.915 159.749 126.439 158.224 126.439 156.337V105.726C126.439 103.839 124.915 102.314 123.028 102.314H70.4813V102.307Z" fill="#18655D"/>
<path d="M120.218 113.239H98.1286C97.1441 113.239 96.3442 112.439 96.3442 111.454C96.3442 110.47 97.1441 109.67 98.1286 109.67H120.218C121.202 109.67 122.002 110.47 122.002 111.454C122.002 112.439 121.202 113.239 120.218 113.239Z" stroke="black" stroke-width="0.683665" stroke-miterlimit="10"/>
<path d="M148.453 0.162686C160.075 0.477172 169.694 9.78869 170.364 21.3973C170.761 28.2203 168.115 34.4348 163.665 38.8171C163.008 39.4666 162.701 40.3895 162.858 41.2988L164.533 51.1914L154.244 45.1957C153.656 44.8539 152.965 44.7308 152.302 44.8607C149.786 45.3666 147.127 45.4623 144.378 45.0453C134.219 43.507 126.289 35.0911 125.352 24.8567C124.087 11.2244 134.985 -0.199656 148.453 0.162686Z" fill="#E8FAF9"/>
<path d="M147.202 32.8138C146.888 32.8138 146.649 32.7181 146.485 32.5198C146.321 32.3216 146.239 32.0481 146.239 31.6926C146.239 31.3576 146.327 31.091 146.505 30.8791C146.683 30.674 146.915 30.5646 147.209 30.5646C147.544 30.5646 147.784 30.6671 147.941 30.8585C148.098 31.0568 148.173 31.3303 148.173 31.6858C148.173 32.0003 148.091 32.2601 147.92 32.4788C147.756 32.6976 147.517 32.807 147.202 32.807V32.8138ZM147.011 25.0406C146.991 24.3979 146.963 23.7348 146.943 23.0579C146.922 22.3811 146.902 21.7043 146.888 21.0274C146.874 20.3506 146.888 19.6601 146.909 18.9491V10.7041H147.695L147.729 18.9491C147.729 19.6601 147.729 20.3506 147.708 21.0274C147.695 21.7043 147.681 22.3811 147.654 23.0579C147.626 23.7348 147.606 24.3979 147.579 25.0406H147.011Z" fill="black"/>
<path d="M59.1953 145.842V134.639H62.3203L66.5547 142.318H66.6406V134.639H69.0391V145.842H65.9219L61.6797 138.162H61.6016V145.842H59.1953ZM77.9219 144.842C77.1823 145.613 76.1667 145.998 74.875 145.998C73.5833 145.998 72.5677 145.613 71.8281 144.842C71.0885 144.071 70.7188 142.993 70.7188 141.607C70.7188 140.217 71.0885 139.136 71.8281 138.365C72.5677 137.589 73.5833 137.201 74.875 137.201C76.1667 137.201 77.1823 137.589 77.9219 138.365C78.6667 139.136 79.0391 140.217 79.0391 141.607C79.0391 142.993 78.6667 144.071 77.9219 144.842ZM73.5 143.404C73.8646 143.8 74.3229 143.998 74.875 143.998C75.4323 143.998 75.8906 143.8 76.25 143.404C76.6146 143.003 76.7969 142.404 76.7969 141.607C76.7969 140.805 76.6146 140.204 76.25 139.803C75.8906 139.402 75.4323 139.201 74.875 139.201C74.3229 139.201 73.8646 139.402 73.5 139.803C73.1354 140.204 72.9531 140.805 72.9531 141.607C72.9531 142.404 73.1354 143.003 73.5 143.404ZM84.3984 145.842V134.639H88.7188C90.2865 134.639 91.5312 135.136 92.4531 136.131C93.3802 137.12 93.8438 138.49 93.8438 140.24C93.8438 141.99 93.3802 143.363 92.4531 144.357C91.5312 145.347 90.2865 145.842 88.7188 145.842H84.3984ZM86.8047 143.686H88.6406C89.4531 143.686 90.1224 143.389 90.6484 142.795C91.1745 142.201 91.4375 141.35 91.4375 140.24C91.4375 139.131 91.1745 138.282 90.6484 137.693C90.1224 137.1 89.4531 136.803 88.6406 136.803H86.8047V143.686ZM98.4844 144.162C99.0052 144.162 99.4271 144.016 99.75 143.725C100.078 143.428 100.242 143.04 100.242 142.561V142.318H98.3281C97.9531 142.318 97.6719 142.402 97.4844 142.568C97.2969 142.735 97.2031 142.946 97.2031 143.201C97.2031 143.488 97.3099 143.719 97.5234 143.896C97.737 144.074 98.0573 144.162 98.4844 144.162ZM97.9219 145.998C97.0156 145.998 96.2943 145.753 95.7578 145.264C95.2266 144.774 94.9609 144.141 94.9609 143.365C94.9609 142.574 95.2474 141.936 95.8203 141.451C96.3932 140.967 97.2005 140.725 98.2422 140.725H100.242V140.318C100.242 139.923 100.115 139.626 99.8594 139.428C99.6042 139.225 99.2526 139.123 98.8047 139.123C98.4974 139.123 98.2292 139.193 98 139.334C97.7708 139.469 97.612 139.639 97.5234 139.842H95.2812C95.4635 139.087 95.8568 138.459 96.4609 137.959C97.0651 137.454 97.8724 137.201 98.8828 137.201C100.013 137.201 100.896 137.48 101.531 138.037C102.167 138.589 102.484 139.378 102.484 140.404V145.842H100.562L100.328 144.881H100.242C99.7422 145.626 98.9688 145.998 97.9219 145.998ZM107.68 145.842C105.919 145.842 105.039 145.016 105.039 143.365V139.443H103.68V137.365H105.039L105.359 135.123H107.281V137.365H109.281V139.443H107.281V142.959C107.281 143.193 107.352 143.386 107.492 143.537C107.638 143.688 107.833 143.764 108.078 143.764H109.281V145.842H107.68ZM113.922 144.162C114.443 144.162 114.865 144.016 115.188 143.725C115.516 143.428 115.68 143.04 115.68 142.561V142.318H113.766C113.391 142.318 113.109 142.402 112.922 142.568C112.734 142.735 112.641 142.946 112.641 143.201C112.641 143.488 112.747 143.719 112.961 143.896C113.174 144.074 113.495 144.162 113.922 144.162ZM113.359 145.998C112.453 145.998 111.732 145.753 111.195 145.264C110.664 144.774 110.398 144.141 110.398 143.365C110.398 142.574 110.685 141.936 111.258 141.451C111.831 140.967 112.638 140.725 113.68 140.725H115.68V140.318C115.68 139.923 115.552 139.626 115.297 139.428C115.042 139.225 114.69 139.123 114.242 139.123C113.935 139.123 113.667 139.193 113.438 139.334C113.208 139.469 113.049 139.639 112.961 139.842H110.719C110.901 139.087 111.294 138.459 111.898 137.959C112.503 137.454 113.31 137.201 114.32 137.201C115.451 137.201 116.333 137.48 116.969 138.037C117.604 138.589 117.922 139.378 117.922 140.404V145.842H116L115.766 144.881H115.68C115.18 145.626 114.406 145.998 113.359 145.998Z" fill="#FAFAFA"/>
</g>
<defs>
<clipPath id="clip0_269_40248">
<rect width="206.59" height="240.691" fill="white" transform="translate(0.705078 0.154297)"/>
</clipPath>
</defs>
</svg>
