<svg width="25" height="25" viewBox="0 0 25 25" fill="none" xmlns="http://www.w3.org/2000/svg">
<path d="M12.5 18.7061C14.7091 18.7061 16.5 16.9152 16.5 14.7061C16.5 12.4969 14.7091 10.7061 12.5 10.7061C10.2909 10.7061 8.5 12.4969 8.5 14.7061C8.5 16.9152 10.2909 18.7061 12.5 18.7061Z" stroke="#262626" stroke-width="1.5" stroke-miterlimit="10" stroke-linecap="round" stroke-linejoin="round"/>
<path d="M12.75 13.4561V14.3861C12.75 14.7361 12.57 15.0661 12.26 15.2461L11.5 15.7061" stroke="#262626" stroke-width="1.5" stroke-miterlimit="10" stroke-linecap="round" stroke-linejoin="round"/>
<path d="M8.49983 22.5061H16.4998C20.5198 22.5061 21.2398 20.8961 21.4498 18.9361L22.1998 10.9361C22.4698 8.4961 21.7698 6.5061 17.4998 6.5061H7.49983C3.22983 6.5061 2.52983 8.4961 2.79983 10.9361L3.54983 18.9361C3.75983 20.8961 4.47983 22.5061 8.49983 22.5061Z" stroke="#262626" stroke-width="1.5" stroke-miterlimit="10" stroke-linecap="round" stroke-linejoin="round"/>
<path d="M8.5 6.5061V5.7061C8.5 3.9361 8.5 2.5061 11.7 2.5061H13.3C16.5 2.5061 16.5 3.9361 16.5 5.7061V6.5061" stroke="#262626" stroke-width="1.5" stroke-miterlimit="10" stroke-linecap="round" stroke-linejoin="round"/>
<path d="M22.1498 11.5061C20.4198 12.7661 18.4998 13.6461 16.5098 14.1461" stroke="#262626" stroke-width="1.5" stroke-miterlimit="10" stroke-linecap="round" stroke-linejoin="round"/>
<path d="M3.12012 11.7761C4.79012 12.9161 6.61012 13.7261 8.50012 14.1861" stroke="#262626" stroke-width="1.5" stroke-miterlimit="10" stroke-linecap="round" stroke-linejoin="round"/>
</svg>
