<svg width="210" height="63" viewBox="0 0 210 63" fill="none" xmlns="http://www.w3.org/2000/svg">
<path d="M75.9273 21.8945C75.9273 23.9851 77.4029 25.6452 80.1699 25.6452C82.9368 25.6452 84.105 24.2925 84.105 22.8168C84.105 21.3411 83.3057 20.5418 80.8462 19.9884L77.2185 19.2506C73.0988 18.3898 71.1313 16.0533 71.1313 11.8721C71.1313 7.69103 74.2056 3.75586 79.8624 3.75586C85.5192 3.75586 89.2084 7.50657 89.2084 12.7944H83.9206C83.9206 10.7039 82.3834 9.04374 79.8009 9.04374C77.2185 9.04374 76.3577 10.3965 76.3577 11.8721C76.3577 13.3478 77.034 13.9012 79.1246 14.3316L82.7523 15.0695C87.3638 15.9918 89.3314 18.2668 89.3314 22.8168C89.3314 27.3669 86.1956 30.9331 80.1084 30.9331C74.0212 30.9331 70.5779 26.9365 70.5779 21.8945H75.8658H75.9273Z" fill="#C2A362"/>
<path d="M93.3313 4.18652H109.133V9.65887H98.6192V14.7623H108.457V20.0502H98.6192V25.1536H109.133V30.6259H93.3313V4.18652Z" fill="#C2A362"/>
<path d="M113.195 4.18652H121.25L125.861 20.6035H126.538L131.149 4.18652H139.204V30.6259H133.916V14.3934H133.24L128.628 30.6259H123.709L119.098 14.3934H118.421V30.6259H113.134V4.18652H113.195Z" fill="#C2A362"/>
<path d="M148.553 21.8945C148.553 23.9851 150.029 25.6452 152.796 25.6452C155.563 25.6452 156.731 24.2925 156.731 22.8168C156.731 21.3411 155.932 20.5418 153.472 19.9884L149.845 19.2506C145.725 18.3898 143.757 16.0533 143.757 11.8721C143.757 7.69103 146.832 3.75586 152.489 3.75586C158.145 3.75586 161.835 7.50657 161.835 12.7944H156.547C156.547 10.7039 155.01 9.04374 152.427 9.04374C149.845 9.04374 148.984 10.3965 148.984 11.8721C148.984 13.3478 149.66 13.9012 151.751 14.3316L155.379 15.0695C159.99 15.9918 161.958 18.2668 161.958 22.8168C161.958 27.3669 158.822 30.9331 152.735 30.9331C146.647 30.9331 143.204 26.9365 143.204 21.8945H148.492H148.553Z" fill="#C2A362"/>
<path d="M73.3438 44.9336V37.4336H70.6426V36.5312H77.0645V37.4336H74.3633V44.9336H73.3438ZM78.4531 43.7266C78.8047 44.0508 79.2402 44.2129 79.7598 44.2129C80.2832 44.2129 80.7207 44.0488 81.0723 43.7207C81.4238 43.3926 81.627 42.9375 81.6816 42.3555H77.8438C77.8984 42.9414 78.1016 43.3984 78.4531 43.7266ZM79.7598 45.0508C79.3027 45.0508 78.8887 44.9609 78.5176 44.7812C78.1465 44.6016 77.8496 44.3691 77.627 44.084C77.4043 43.7949 77.2344 43.4863 77.1172 43.1582C77 42.8301 76.9414 42.502 76.9414 42.1738L77 41.5762H81.6816C81.6504 40.8809 81.4531 40.3477 81.0898 39.9766C80.7266 39.6016 80.2637 39.4141 79.7012 39.4141C78.9824 39.4141 78.4434 39.7148 78.084 40.3164H77.123C77.3301 39.7578 77.6602 39.3281 78.1133 39.0273C78.5664 38.7266 79.0957 38.5762 79.7012 38.5762C80.5645 38.5762 81.2598 38.8594 81.7871 39.4258C82.3184 39.9922 82.584 40.7891 82.584 41.8164C82.584 42.8398 82.3203 43.6348 81.793 44.2012C81.2695 44.7676 80.5918 45.0508 79.7598 45.0508ZM85.0801 43.5918C85.4277 44.0059 85.8926 44.2129 86.4746 44.2129C87.0605 44.2129 87.5273 44.0059 87.875 43.5918C88.2227 43.1738 88.3965 42.582 88.3965 41.8164C88.3965 41.0469 88.2227 40.4551 87.875 40.041C87.5273 39.623 87.0605 39.4141 86.4746 39.4141C85.8926 39.4141 85.4277 39.623 85.0801 40.041C84.7324 40.4551 84.5586 41.0469 84.5586 41.8164C84.5586 42.582 84.7324 43.1738 85.0801 43.5918ZM86.3574 45.0508C85.5566 45.0508 84.9062 44.7676 84.4062 44.2012C83.9062 43.6348 83.6562 42.8398 83.6562 41.8164C83.6562 40.7891 83.9062 39.9922 84.4062 39.4258C84.9062 38.8594 85.5566 38.5762 86.3574 38.5762C87.2129 38.5762 87.873 38.875 88.3379 39.4727H88.3965V36.5312H89.2988V44.9336H88.5781L88.4551 44.0957H88.3965C87.9473 44.7324 87.2676 45.0508 86.3574 45.0508ZM91.0332 44.9336V38.6934H91.7539L91.877 39.5312H91.9355C92.2715 38.9727 92.832 38.6934 93.6172 38.6934H94.2734V39.5312H93.6172C93.1367 39.5312 92.7363 39.6797 92.416 39.9766C92.0957 40.2734 91.9355 40.6465 91.9355 41.0957V44.9336H91.0332ZM95.2988 44.9336V38.6934H96.2012V44.9336H95.2988ZM96.2012 37.6094C96.0801 37.7305 95.9316 37.791 95.7559 37.791C95.5801 37.791 95.4297 37.7324 95.3047 37.6152C95.1836 37.4941 95.123 37.3457 95.123 37.1699C95.123 36.9941 95.1836 36.8438 95.3047 36.7188C95.4297 36.5938 95.5801 36.5312 95.7559 36.5312C95.9316 36.5312 96.0801 36.5938 96.2012 36.7188C96.3223 36.8438 96.3828 36.9941 96.3828 37.1699C96.3828 37.3379 96.3223 37.4844 96.2012 37.6094ZM99.8574 45.0508C99.2402 45.0508 98.7148 44.8926 98.2812 44.5762C97.8516 44.2559 97.5781 43.8359 97.4609 43.3164H98.4219C98.5117 43.6055 98.6875 43.8281 98.9492 43.9844C99.2109 44.1367 99.5137 44.2129 99.8574 44.2129C100.346 44.2129 100.717 44.125 100.971 43.9492C101.229 43.7734 101.357 43.541 101.357 43.252C101.357 43.0137 101.266 42.8203 101.082 42.6719C100.898 42.5234 100.668 42.4199 100.391 42.3613C100.117 42.2988 99.8203 42.2246 99.5 42.1387C99.1797 42.0488 98.8809 41.9531 98.6035 41.8516C98.3301 41.7461 98.0996 41.5625 97.9121 41.3008C97.7285 41.0352 97.6367 40.707 97.6367 40.3164C97.6367 39.8438 97.8398 39.4355 98.2461 39.0918C98.6562 38.748 99.1934 38.5762 99.8574 38.5762C100.416 38.5762 100.906 38.7129 101.328 38.9863C101.75 39.2559 102.02 39.6387 102.137 40.1348H101.182C100.975 39.6543 100.533 39.4141 99.8574 39.4141C99.416 39.4141 99.0859 39.4941 98.8672 39.6543C98.6484 39.8145 98.5391 40.0352 98.5391 40.3164C98.5391 40.6133 98.666 40.8438 98.9199 41.0078C99.1777 41.168 99.4883 41.2891 99.8516 41.3711C100.215 41.4492 100.578 41.5391 100.941 41.6406C101.309 41.7383 101.619 41.9219 101.873 42.1914C102.131 42.4609 102.26 42.8145 102.26 43.252C102.26 43.748 102.041 44.1719 101.604 44.5234C101.166 44.875 100.584 45.0508 99.8574 45.0508ZM103.514 44.9336V38.6934H104.416V44.9336H103.514ZM104.416 37.6094C104.295 37.7305 104.146 37.791 103.971 37.791C103.795 37.791 103.645 37.7324 103.52 37.6152C103.398 37.4941 103.338 37.3457 103.338 37.1699C103.338 36.9941 103.398 36.8438 103.52 36.7188C103.645 36.5938 103.795 36.5312 103.971 36.5312C104.146 36.5312 104.295 36.5938 104.416 36.7188C104.537 36.8438 104.598 36.9941 104.598 37.1699C104.598 37.3379 104.537 37.4844 104.416 37.6094ZM106.092 44.9336V38.6934H106.812L106.936 39.5312H106.994C107.369 38.8906 107.969 38.5723 108.793 38.5762C109.465 38.5762 110.023 38.8066 110.469 39.2676C110.914 39.7246 111.137 40.334 111.137 41.0957V44.9336H110.234V41.0957C110.234 40.5684 110.09 40.1562 109.801 39.8594C109.512 39.5625 109.137 39.4141 108.676 39.4141C108.203 39.4141 107.805 39.5801 107.48 39.9121C107.156 40.2441 106.994 40.6387 106.994 41.0957V44.9336H106.092ZM116.703 44.9336L114.242 38.6934H115.203L117.184 43.791H117.242L119.223 38.6934H120.184L117.723 44.9336H116.703ZM122.176 43.7266C122.527 44.0508 122.963 44.2129 123.482 44.2129C124.006 44.2129 124.443 44.0488 124.795 43.7207C125.146 43.3926 125.35 42.9375 125.404 42.3555H121.566C121.621 42.9414 121.824 43.3984 122.176 43.7266ZM123.482 45.0508C123.025 45.0508 122.611 44.9609 122.24 44.7812C121.869 44.6016 121.572 44.3691 121.35 44.084C121.127 43.7949 120.957 43.4863 120.84 43.1582C120.723 42.8301 120.664 42.502 120.664 42.1738L120.723 41.5762H125.404C125.373 40.8809 125.176 40.3477 124.812 39.9766C124.449 39.6016 123.986 39.4141 123.424 39.4141C122.705 39.4141 122.166 39.7148 121.807 40.3164H120.846C121.053 39.7578 121.383 39.3281 121.836 39.0273C122.289 38.7266 122.818 38.5762 123.424 38.5762C124.287 38.5762 124.982 38.8594 125.51 39.4258C126.041 39.9922 126.307 40.7891 126.307 41.8164C126.307 42.8398 126.043 43.6348 125.516 44.2012C124.992 44.7676 124.314 45.0508 123.482 45.0508ZM130.496 44.9336V36.5312H135.775V37.4336H131.516V40.252H135.535V41.1543H131.516V44.0312H135.898V44.9336H130.496ZM137.457 44.9336V36.5312H138.354V44.9336H137.457ZM140.088 44.9336V38.6934H140.809L140.932 39.5312H140.99C141.365 38.8906 141.926 38.5723 142.672 38.5762C143.062 38.5762 143.414 38.6758 143.727 38.875C144.039 39.0742 144.287 39.3535 144.471 39.7129H144.529C144.936 38.9512 145.596 38.5723 146.51 38.5762C147.127 38.5762 147.641 38.8066 148.051 39.2676C148.465 39.7246 148.672 40.334 148.672 41.0957V44.9336H147.77V41.0957C147.77 40.5684 147.637 40.1562 147.371 39.8594C147.109 39.5625 146.762 39.4141 146.328 39.4141C145.902 39.4141 145.545 39.5742 145.256 39.8945C144.971 40.2148 144.828 40.6152 144.828 41.0957V44.9336H143.932V41.0957C143.932 40.5684 143.799 40.1562 143.533 39.8594C143.271 39.5625 142.924 39.4141 142.49 39.4141C142.092 39.4141 141.742 39.5762 141.441 39.9004C141.141 40.2246 140.99 40.623 140.99 41.0957V44.9336H140.088ZM150.283 44.9336V38.6934H151.186V44.9336H150.283ZM151.186 37.6094C151.064 37.7305 150.916 37.791 150.74 37.791C150.564 37.791 150.414 37.7324 150.289 37.6152C150.168 37.4941 150.107 37.3457 150.107 37.1699C150.107 36.9941 150.168 36.8438 150.289 36.7188C150.414 36.5938 150.564 36.5312 150.74 36.5312C150.916 36.5312 151.064 36.5938 151.186 36.7188C151.307 36.8438 151.367 36.9941 151.367 37.1699C151.367 37.3379 151.307 37.4844 151.186 37.6094ZM155.92 44.9336V39.5312H154.959V38.6934H155.92V38.0957C155.92 37.6465 156.068 37.2734 156.365 36.9766C156.662 36.6797 157.033 36.5312 157.479 36.5312H158.439V37.375H157.543C157.336 37.375 157.164 37.4434 157.027 37.5801C156.891 37.7129 156.822 37.8848 156.822 38.0957V38.6934H158.439V39.5312H156.822V44.9336H155.92ZM160.613 43.7266C160.965 44.0508 161.4 44.2129 161.92 44.2129C162.443 44.2129 162.881 44.0488 163.232 43.7207C163.584 43.3926 163.787 42.9375 163.842 42.3555H160.004C160.059 42.9414 160.262 43.3984 160.613 43.7266ZM161.92 45.0508C161.463 45.0508 161.049 44.9609 160.678 44.7812C160.307 44.6016 160.01 44.3691 159.787 44.084C159.564 43.7949 159.395 43.4863 159.277 43.1582C159.16 42.8301 159.102 42.502 159.102 42.1738L159.16 41.5762H163.842C163.811 40.8809 163.613 40.3477 163.25 39.9766C162.887 39.6016 162.424 39.4141 161.861 39.4141C161.143 39.4141 160.604 39.7148 160.244 40.3164H159.283C159.49 39.7578 159.82 39.3281 160.273 39.0273C160.727 38.7266 161.256 38.5762 161.861 38.5762C162.725 38.5762 163.42 38.8594 163.947 39.4258C164.479 39.9922 164.744 40.7891 164.744 41.8164C164.744 42.8398 164.48 43.6348 163.953 44.2012C163.43 44.7676 162.752 45.0508 161.92 45.0508ZM167.92 44.2129C168.506 44.2129 168.971 44.0469 169.314 43.7148C169.662 43.3828 169.836 42.9688 169.836 42.4727V42.0508H168.096C167.623 42.0508 167.266 42.1484 167.023 42.3438C166.781 42.5352 166.66 42.7988 166.66 43.1348C166.66 43.4629 166.771 43.7246 166.994 43.9199C167.221 44.1152 167.529 44.2129 167.92 44.2129ZM167.92 45.0508C167.271 45.0508 166.748 44.8691 166.35 44.5059C165.955 44.1426 165.758 43.6855 165.758 43.1348C165.758 42.5762 165.965 42.1172 166.379 41.7578C166.797 41.3945 167.369 41.2129 168.096 41.2129H169.836V40.791C169.836 40.377 169.697 40.0449 169.42 39.7949C169.146 39.541 168.785 39.4141 168.336 39.4141C167.574 39.4141 167.094 39.7148 166.895 40.3164H165.939C166.084 39.7578 166.367 39.3281 166.789 39.0273C167.215 38.7266 167.73 38.5762 168.336 38.5762C169.078 38.5762 169.664 38.7773 170.094 39.1797C170.523 39.582 170.738 40.1191 170.738 40.791V44.9336H170.018L169.895 44.0957H169.836C169.699 44.334 169.455 44.5527 169.104 44.752C168.756 44.9512 168.361 45.0508 167.92 45.0508ZM172.414 44.9336V36.5312H173.311V44.9336H172.414ZM175.045 44.9336V38.6934H175.947V44.9336H175.045ZM175.947 37.6094C175.826 37.7305 175.678 37.791 175.502 37.791C175.326 37.791 175.176 37.7324 175.051 37.6152C174.93 37.4941 174.869 37.3457 174.869 37.1699C174.869 36.9941 174.93 36.8438 175.051 36.7188C175.176 36.5938 175.326 36.5312 175.502 36.5312C175.678 36.5312 175.826 36.5938 175.947 36.7188C176.068 36.8438 176.129 36.9941 176.129 37.1699C176.129 37.3379 176.068 37.4844 175.947 37.6094ZM178.467 47.3359L179.428 44.9336L176.844 38.6934H177.805L179.844 43.6738H179.902L181.883 38.6934H182.844L179.428 47.3359H178.467ZM184.584 47.3359L185.545 44.9336L182.961 38.6934H183.922L185.961 43.6738H186.02L188 38.6934H188.961L185.545 47.3359H184.584ZM190.953 43.7266C191.305 44.0508 191.74 44.2129 192.26 44.2129C192.783 44.2129 193.221 44.0488 193.572 43.7207C193.924 43.3926 194.127 42.9375 194.182 42.3555H190.344C190.398 42.9414 190.602 43.3984 190.953 43.7266ZM192.26 45.0508C191.803 45.0508 191.389 44.9609 191.018 44.7812C190.646 44.6016 190.35 44.3691 190.127 44.084C189.904 43.7949 189.734 43.4863 189.617 43.1582C189.5 42.8301 189.441 42.502 189.441 42.1738L189.5 41.5762H194.182C194.15 40.8809 193.953 40.3477 193.59 39.9766C193.227 39.6016 192.764 39.4141 192.201 39.4141C191.482 39.4141 190.943 39.7148 190.584 40.3164H189.623C189.83 39.7578 190.16 39.3281 190.613 39.0273C191.066 38.7266 191.596 38.5762 192.201 38.5762C193.064 38.5762 193.76 38.8594 194.287 39.4258C194.818 39.9922 195.084 40.7891 195.084 41.8164C195.084 42.8398 194.82 43.6348 194.293 44.2012C193.77 44.7676 193.092 45.0508 192.26 45.0508ZM198.436 44.9336C197.986 44.9336 197.613 44.7852 197.316 44.4883C197.023 44.1914 196.877 43.8203 196.877 43.375V39.5312H195.916V38.6934H196.877L197 37.0117H197.779V38.6934H199.396V39.5312H197.779V43.375C197.779 43.582 197.846 43.7539 197.979 43.8906C198.115 44.0273 198.289 44.0957 198.5 44.0957H199.396V44.9336H198.436ZM200.721 44.9336V38.6934H201.623V44.9336H200.721ZM201.623 37.6094C201.502 37.7305 201.354 37.791 201.178 37.791C201.002 37.791 200.852 37.7324 200.727 37.6152C200.605 37.4941 200.545 37.3457 200.545 37.1699C200.545 36.9941 200.605 36.8438 200.727 36.7188C200.852 36.5938 201.002 36.5312 201.178 36.5312C201.354 36.5312 201.502 36.5938 201.623 36.7188C201.744 36.8438 201.805 36.9941 201.805 37.1699C201.805 37.3379 201.744 37.4844 201.623 37.6094ZM203.299 44.9336V38.6934H204.02L204.143 39.5312H204.201C204.576 38.8906 205.176 38.5723 206 38.5762C206.672 38.5762 207.23 38.8066 207.676 39.2676C208.121 39.7246 208.344 40.334 208.344 41.0957V44.9336H207.441V41.0957C207.441 40.5684 207.297 40.1562 207.008 39.8594C206.719 39.5625 206.344 39.4141 205.883 39.4141C205.41 39.4141 205.012 39.5801 204.688 39.9121C204.363 40.2441 204.201 40.6387 204.201 41.0957V44.9336H203.299ZM74 59.9336V51.5312H75.0195V59.9336H74ZM74.9609 50.2715C74.8398 50.3926 74.6914 50.4531 74.5156 50.4531C74.3398 50.4531 74.1895 50.3945 74.0645 50.2773C73.9434 50.1562 73.8828 50.0078 73.8828 49.832C73.8828 49.6562 73.9434 49.5059 74.0645 49.3809C74.1895 49.2559 74.3398 49.1934 74.5156 49.1934C74.6914 49.1934 74.8398 49.2559 74.9609 49.3809C75.082 49.5059 75.1426 49.6562 75.1426 49.832C75.1426 50 75.082 50.1465 74.9609 50.2715ZM78.002 58.5918C78.3496 59.0059 78.8145 59.2129 79.3965 59.2129C79.9824 59.2129 80.4492 59.0059 80.7969 58.5918C81.1445 58.1738 81.3184 57.582 81.3184 56.8164C81.3184 56.0469 81.1445 55.4551 80.7969 55.041C80.4492 54.623 79.9824 54.4141 79.3965 54.4141C78.8145 54.4141 78.3496 54.623 78.002 55.041C77.6543 55.4551 77.4805 56.0469 77.4805 56.8164C77.4805 57.582 77.6543 58.1738 78.002 58.5918ZM79.2793 60.0508C78.4785 60.0508 77.8281 59.7676 77.3281 59.2012C76.8281 58.6348 76.5781 57.8398 76.5781 56.8164C76.5781 55.7891 76.8281 54.9922 77.3281 54.4258C77.8281 53.8594 78.4785 53.5762 79.2793 53.5762C80.1348 53.5762 80.7949 53.875 81.2598 54.4727H81.3184V51.5312H82.2207V59.9336H81.5L81.377 59.0957H81.3184C80.8691 59.7324 80.1895 60.0508 79.2793 60.0508ZM85.7598 59.2129C86.3457 59.2129 86.8105 59.0469 87.1543 58.7148C87.502 58.3828 87.6758 57.9688 87.6758 57.4727V57.0508H85.9355C85.4629 57.0508 85.1055 57.1484 84.8633 57.3438C84.6211 57.5352 84.5 57.7988 84.5 58.1348C84.5 58.4629 84.6113 58.7246 84.834 58.9199C85.0605 59.1152 85.3691 59.2129 85.7598 59.2129ZM85.7598 60.0508C85.1113 60.0508 84.5879 59.8691 84.1895 59.5059C83.7949 59.1426 83.5977 58.6855 83.5977 58.1348C83.5977 57.5762 83.8047 57.1172 84.2188 56.7578C84.6367 56.3945 85.209 56.2129 85.9355 56.2129H87.6758V55.791C87.6758 55.377 87.5371 55.0449 87.2598 54.7949C86.9863 54.541 86.625 54.4141 86.1758 54.4141C85.4141 54.4141 84.9336 54.7148 84.7344 55.3164H83.7793C83.9238 54.7578 84.207 54.3281 84.6289 54.0273C85.0547 53.7266 85.5703 53.5762 86.1758 53.5762C86.918 53.5762 87.5039 53.7773 87.9336 54.1797C88.3633 54.582 88.5781 55.1191 88.5781 55.791V59.9336H87.8574L87.7344 59.0957H87.6758C87.5391 59.334 87.2949 59.5527 86.9434 59.752C86.5957 59.9512 86.2012 60.0508 85.7598 60.0508ZM90.1895 59.9336V53.6934H90.9102L91.0332 54.5312H91.0918C91.4277 53.9727 91.9883 53.6934 92.7734 53.6934H93.4297V54.5312H92.7734C92.293 54.5312 91.8926 54.6797 91.5723 54.9766C91.252 55.2734 91.0918 55.6465 91.0918 56.0957V59.9336H90.1895ZM95.4219 58.7266C95.7734 59.0508 96.209 59.2129 96.7285 59.2129C97.252 59.2129 97.6895 59.0488 98.041 58.7207C98.3926 58.3926 98.5957 57.9375 98.6504 57.3555H94.8125C94.8672 57.9414 95.0703 58.3984 95.4219 58.7266ZM96.7285 60.0508C96.2715 60.0508 95.8574 59.9609 95.4863 59.7812C95.1152 59.6016 94.8184 59.3691 94.5957 59.084C94.373 58.7949 94.2031 58.4863 94.0859 58.1582C93.9688 57.8301 93.9102 57.502 93.9102 57.1738L93.9688 56.5762H98.6504C98.6191 55.8809 98.4219 55.3477 98.0586 54.9766C97.6953 54.6016 97.2324 54.4141 96.6699 54.4141C95.9512 54.4141 95.4121 54.7148 95.0527 55.3164H94.0918C94.2988 54.7578 94.6289 54.3281 95.082 54.0273C95.5352 53.7266 96.0645 53.5762 96.6699 53.5762C97.5332 53.5762 98.2285 53.8594 98.7559 54.4258C99.2871 54.9922 99.5527 55.7891 99.5527 56.8164C99.5527 57.8398 99.2891 58.6348 98.7617 59.2012C98.2383 59.7676 97.5605 60.0508 96.7285 60.0508ZM108.23 59.2012C107.703 59.7676 107.006 60.0508 106.139 60.0508C105.275 60.0508 104.58 59.7676 104.053 59.2012C103.525 58.6348 103.262 57.8398 103.262 56.8164C103.262 55.7891 103.525 54.9922 104.053 54.4258C104.58 53.8594 105.275 53.5762 106.139 53.5762C107.006 53.5762 107.703 53.8594 108.23 54.4258C108.758 54.9922 109.021 55.7891 109.021 56.8164C109.021 57.8398 108.758 58.6348 108.23 59.2012ZM104.709 58.5859C105.072 59.0039 105.549 59.2129 106.139 59.2129C106.732 59.2129 107.211 59.0039 107.574 58.5859C107.941 58.1641 108.125 57.5742 108.125 56.8164C108.125 56.0547 107.941 55.4648 107.574 55.0469C107.211 54.625 106.732 54.4141 106.139 54.4141C105.549 54.4141 105.072 54.625 104.709 55.0469C104.346 55.4648 104.164 56.0547 104.164 56.8164C104.164 57.5742 104.346 58.1641 104.709 58.5859ZM110.469 59.9336V51.5312H111.365V59.9336H110.469ZM115.443 60.0508C114.771 60.0508 114.213 59.8223 113.768 59.3652C113.322 58.9043 113.1 58.293 113.1 57.5312V53.6934H114.002V57.5312C114.002 58.0586 114.145 58.4707 114.43 58.7676C114.719 59.0645 115.096 59.2129 115.561 59.2129C116.033 59.2129 116.432 59.0469 116.756 58.7148C117.08 58.3828 117.242 57.9883 117.242 57.5312V53.6934H118.145V59.9336H117.424L117.301 59.0957H117.242C116.867 59.7324 116.268 60.0508 115.443 60.0508ZM119.814 59.9336V53.6934H120.535L120.658 54.5312H120.717C121.092 53.8906 121.691 53.5723 122.516 53.5762C123.188 53.5762 123.746 53.8066 124.191 54.2676C124.637 54.7246 124.859 55.334 124.859 56.0957V59.9336H123.957V56.0957C123.957 55.5684 123.812 55.1562 123.523 54.8594C123.234 54.5625 122.859 54.4141 122.398 54.4141C121.926 54.4141 121.527 54.5801 121.203 54.9121C120.879 55.2441 120.717 55.6387 120.717 56.0957V59.9336H119.814ZM126.471 59.9336V53.6934H127.191L127.314 54.5312H127.373C127.748 53.8906 128.309 53.5723 129.055 53.5762C129.445 53.5762 129.797 53.6758 130.109 53.875C130.422 54.0742 130.67 54.3535 130.854 54.7129H130.912C131.318 53.9512 131.979 53.5723 132.893 53.5762C133.51 53.5762 134.023 53.8066 134.434 54.2676C134.848 54.7246 135.055 55.334 135.055 56.0957V59.9336H134.152V56.0957C134.152 55.5684 134.02 55.1562 133.754 54.8594C133.492 54.5625 133.145 54.4141 132.711 54.4141C132.285 54.4141 131.928 54.5742 131.639 54.8945C131.354 55.2148 131.211 55.6152 131.211 56.0957V59.9336H130.314V56.0957C130.314 55.5684 130.182 55.1562 129.916 54.8594C129.654 54.5625 129.307 54.4141 128.873 54.4141C128.475 54.4141 128.125 54.5762 127.824 54.9004C127.523 55.2246 127.373 55.623 127.373 56.0957V59.9336H126.471ZM138.471 59.2129C139.057 59.2129 139.521 59.0469 139.865 58.7148C140.213 58.3828 140.387 57.9688 140.387 57.4727V57.0508H138.646C138.174 57.0508 137.816 57.1484 137.574 57.3438C137.332 57.5352 137.211 57.7988 137.211 58.1348C137.211 58.4629 137.322 58.7246 137.545 58.9199C137.771 59.1152 138.08 59.2129 138.471 59.2129ZM138.471 60.0508C137.822 60.0508 137.299 59.8691 136.9 59.5059C136.506 59.1426 136.309 58.6855 136.309 58.1348C136.309 57.5762 136.516 57.1172 136.93 56.7578C137.348 56.3945 137.92 56.2129 138.646 56.2129H140.387V55.791C140.387 55.377 140.248 55.0449 139.971 54.7949C139.697 54.541 139.336 54.4141 138.887 54.4141C138.125 54.4141 137.645 54.7148 137.445 55.3164H136.49C136.635 54.7578 136.918 54.3281 137.34 54.0273C137.766 53.7266 138.281 53.5762 138.887 53.5762C139.629 53.5762 140.215 53.7773 140.645 54.1797C141.074 54.582 141.289 55.1191 141.289 55.791V59.9336H140.568L140.445 59.0957H140.387C140.25 59.334 140.006 59.5527 139.654 59.752C139.307 59.9512 138.912 60.0508 138.471 60.0508ZM144.881 60.0508C144.264 60.0508 143.738 59.8926 143.305 59.5762C142.875 59.2559 142.602 58.8359 142.484 58.3164H143.445C143.535 58.6055 143.711 58.8281 143.973 58.9844C144.234 59.1367 144.537 59.2129 144.881 59.2129C145.369 59.2129 145.74 59.125 145.994 58.9492C146.252 58.7734 146.381 58.541 146.381 58.252C146.381 58.0137 146.289 57.8203 146.105 57.6719C145.922 57.5234 145.691 57.4199 145.414 57.3613C145.141 57.2988 144.844 57.2246 144.523 57.1387C144.203 57.0488 143.904 56.9531 143.627 56.8516C143.354 56.7461 143.123 56.5625 142.936 56.3008C142.752 56.0352 142.66 55.707 142.66 55.3164C142.66 54.8438 142.863 54.4355 143.27 54.0918C143.68 53.748 144.217 53.5762 144.881 53.5762C145.439 53.5762 145.93 53.7129 146.352 53.9863C146.773 54.2559 147.043 54.6387 147.16 55.1348H146.205C145.998 54.6543 145.557 54.4141 144.881 54.4141C144.439 54.4141 144.109 54.4941 143.891 54.6543C143.672 54.8145 143.562 55.0352 143.562 55.3164C143.562 55.6133 143.689 55.8438 143.943 56.0078C144.201 56.168 144.512 56.2891 144.875 56.3711C145.238 56.4492 145.602 56.5391 145.965 56.6406C146.332 56.7383 146.643 56.9219 146.896 57.1914C147.154 57.4609 147.283 57.8145 147.283 58.252C147.283 58.748 147.064 59.1719 146.627 59.5234C146.189 59.875 145.607 60.0508 144.881 60.0508ZM148.537 59.9336V53.6934H149.439V59.9336H148.537ZM156.453 60.0508C155.629 60.0508 154.951 59.8477 154.42 59.4414C153.889 59.0352 153.547 58.4785 153.395 57.7715H154.414C154.719 58.6934 155.398 59.1543 156.453 59.1543C157.117 59.1543 157.623 59.0156 157.971 58.7383C158.318 58.457 158.492 58.0957 158.492 57.6543C158.492 57.3652 158.402 57.123 158.223 56.9277C158.043 56.7324 157.811 56.5859 157.525 56.4883C157.244 56.3867 156.93 56.2969 156.582 56.2188C156.234 56.1367 155.887 56.041 155.539 55.9316C155.195 55.8223 154.881 55.6855 154.596 55.5215C154.314 55.3574 154.084 55.123 153.904 54.8184C153.725 54.5098 153.635 54.1348 153.635 53.6934C153.635 53.0371 153.887 52.4941 154.391 52.0645C154.895 51.6309 155.582 51.4141 156.453 51.4141C157.215 51.4141 157.848 51.5898 158.352 51.9414C158.855 52.293 159.184 52.7969 159.336 53.4531H158.316C158.035 52.6914 157.414 52.3125 156.453 52.3164C155.879 52.3164 155.436 52.4453 155.123 52.7031C154.811 52.957 154.654 53.2871 154.654 53.6934C154.654 54.0449 154.773 54.3359 155.012 54.5664C155.254 54.793 155.555 54.9531 155.914 55.0469C156.273 55.1367 156.662 55.2422 157.08 55.3633C157.502 55.4805 157.893 55.6074 158.252 55.7441C158.615 55.8809 158.916 56.1113 159.154 56.4355C159.393 56.7598 159.512 57.166 159.512 57.6543C159.512 58.3184 159.238 58.8848 158.691 59.3535C158.145 59.8184 157.398 60.0508 156.453 60.0508ZM160.83 59.9336V53.6934H161.732V59.9336H160.83ZM161.732 52.6094C161.611 52.7305 161.463 52.791 161.287 52.791C161.111 52.791 160.961 52.7324 160.836 52.6152C160.715 52.4941 160.654 52.3457 160.654 52.1699C160.654 51.9941 160.715 51.8438 160.836 51.7188C160.961 51.5938 161.111 51.5312 161.287 51.5312C161.463 51.5312 161.611 51.5938 161.732 51.7188C161.854 51.8438 161.914 51.9941 161.914 52.1699C161.914 52.3379 161.854 52.4844 161.732 52.6094ZM165.389 60.0508C164.771 60.0508 164.246 59.8926 163.812 59.5762C163.383 59.2559 163.109 58.8359 162.992 58.3164H163.953C164.043 58.6055 164.219 58.8281 164.48 58.9844C164.742 59.1367 165.045 59.2129 165.389 59.2129C165.877 59.2129 166.248 59.125 166.502 58.9492C166.76 58.7734 166.889 58.541 166.889 58.252C166.889 58.0137 166.797 57.8203 166.613 57.6719C166.43 57.5234 166.199 57.4199 165.922 57.3613C165.648 57.2988 165.352 57.2246 165.031 57.1387C164.711 57.0488 164.412 56.9531 164.135 56.8516C163.861 56.7461 163.631 56.5625 163.443 56.3008C163.26 56.0352 163.168 55.707 163.168 55.3164C163.168 54.8438 163.371 54.4355 163.777 54.0918C164.188 53.748 164.725 53.5762 165.389 53.5762C165.947 53.5762 166.438 53.7129 166.859 53.9863C167.281 54.2559 167.551 54.6387 167.668 55.1348H166.713C166.506 54.6543 166.064 54.4141 165.389 54.4141C164.947 54.4141 164.617 54.4941 164.398 54.6543C164.18 54.8145 164.07 55.0352 164.07 55.3164C164.07 55.6133 164.197 55.8438 164.451 56.0078C164.709 56.168 165.02 56.2891 165.383 56.3711C165.746 56.4492 166.109 56.5391 166.473 56.6406C166.84 56.7383 167.15 56.9219 167.404 57.1914C167.662 57.4609 167.791 57.8145 167.791 58.252C167.791 58.748 167.572 59.1719 167.135 59.5234C166.697 59.875 166.115 60.0508 165.389 60.0508ZM171.025 59.9336C170.576 59.9336 170.203 59.7852 169.906 59.4883C169.613 59.1914 169.467 58.8203 169.467 58.375V54.5312H168.506V53.6934H169.467L169.59 52.0117H170.369V53.6934H171.986V54.5312H170.369V58.375C170.369 58.582 170.436 58.7539 170.568 58.8906C170.705 59.0273 170.879 59.0957 171.09 59.0957H171.986V59.9336H171.025ZM175.777 60.0508C174.914 60.0508 174.217 59.7676 173.686 59.2012C173.158 58.6348 172.895 57.8398 172.895 56.8164C172.895 55.7891 173.156 54.9922 173.68 54.4258C174.203 53.8594 174.881 53.5762 175.713 53.5762C176.17 53.5762 176.584 53.666 176.955 53.8457C177.33 54.0254 177.629 54.2598 177.852 54.5488C178.074 54.834 178.244 55.1406 178.361 55.4688C178.479 55.7969 178.537 56.125 178.537 56.4531L178.473 57.0508H173.797C173.828 57.7461 174.025 58.2812 174.389 58.6562C174.752 59.0273 175.215 59.2129 175.777 59.2129C176.496 59.2129 177.035 58.9141 177.395 58.3164H178.355C178.148 58.875 177.818 59.3047 177.365 59.6055C176.916 59.9023 176.387 60.0508 175.777 60.0508ZM173.797 56.2715H177.635C177.58 55.6855 177.377 55.2305 177.025 54.9062C176.674 54.5781 176.236 54.4141 175.713 54.4141C175.193 54.4141 174.758 54.5781 174.406 54.9062C174.055 55.2305 173.852 55.6855 173.797 56.2715ZM179.908 59.9336V53.6934H180.629L180.752 54.5312H180.811C181.186 53.8906 181.746 53.5723 182.492 53.5762C182.883 53.5762 183.234 53.6758 183.547 53.875C183.859 54.0742 184.107 54.3535 184.291 54.7129H184.35C184.756 53.9512 185.416 53.5723 186.33 53.5762C186.947 53.5762 187.461 53.8066 187.871 54.2676C188.285 54.7246 188.492 55.334 188.492 56.0957V59.9336H187.59V56.0957C187.59 55.5684 187.457 55.1562 187.191 54.8594C186.93 54.5625 186.582 54.4141 186.148 54.4141C185.723 54.4141 185.365 54.5742 185.076 54.8945C184.791 55.2148 184.648 55.6152 184.648 56.0957V59.9336H183.752V56.0957C183.752 55.5684 183.619 55.1562 183.354 54.8594C183.092 54.5625 182.744 54.4141 182.311 54.4141C181.912 54.4141 181.562 54.5762 181.262 54.9004C180.961 55.2246 180.811 55.623 180.811 56.0957V59.9336H179.908ZM190.104 59.9336V53.6934H191.006V59.9336H190.104ZM191.006 52.6094C190.885 52.7305 190.736 52.791 190.561 52.791C190.385 52.791 190.234 52.7324 190.109 52.6152C189.988 52.4941 189.928 52.3457 189.928 52.1699C189.928 51.9941 189.988 51.8438 190.109 51.7188C190.234 51.5938 190.385 51.5312 190.561 51.5312C190.736 51.5312 190.885 51.5938 191.006 51.7188C191.127 51.8438 191.188 51.9941 191.188 52.1699C191.188 52.3379 191.127 52.4844 191.006 52.6094Z" fill="#C2A362"/>
<path d="M31.7187 0.400346C30.366 1.19968 29.1363 1.87603 27.968 2.61388C26.6768 3.35172 25.3856 4.08957 24.0944 4.8889C23.7869 5.07336 23.418 5.50377 23.3565 5.87269C23.295 6.42607 23.8484 6.67202 24.2788 6.85648C25.2011 7.16391 26.1234 7.10243 26.9842 6.61053C29.5052 5.13484 32.0262 3.65916 34.5471 2.24496C36.0843 1.38414 37.7445 1.32265 39.3431 1.99901C40.2039 2.36793 40.6958 2.9828 40.6344 4.02808C40.6344 8.27068 40.6344 12.5133 40.6344 16.7559C40.6344 17.6167 40.3269 18.1701 39.5891 18.6005C37.1296 20.0147 34.6701 21.4289 32.2106 22.9046C31.5343 23.2735 30.7964 22.9046 30.7964 22.1053C30.7964 17.9241 30.7964 13.743 30.7964 9.50042C30.7964 9.25447 31.0424 8.88555 31.2883 8.76258C33.6248 7.40986 35.8999 6.05715 38.2364 4.70443C38.7283 4.45849 39.3431 4.21254 39.2202 3.53618C39.0972 2.85983 38.4823 2.67536 37.8674 2.4909C37.0681 2.30644 36.3303 2.36793 35.5924 2.79834C33.1329 4.21254 30.6735 5.62674 28.214 7.04094C27.8451 7.28689 27.7836 7.53284 27.7836 7.90176C27.7836 11.9599 27.7836 16.0795 27.7836 20.1377C27.7836 20.7525 27.5376 21.06 26.9842 21.2444C25.693 21.6134 24.4633 21.6134 23.1721 21.06C22.3112 20.6911 21.8193 20.0762 21.8193 19.0309C21.8193 14.7883 21.8193 10.5457 21.8193 6.3031C21.8193 5.44228 22.1268 4.8889 22.8646 4.45849C25.3241 3.04429 27.7836 1.63009 30.2431 0.154399C30.8579 -0.214523 31.1039 0.154399 31.5958 0.461834L31.7187 0.400346Z" fill="#C2A362"/>
<path d="M29.8742 21.7976C29.1363 21.6131 28.8904 21.2442 28.8904 20.5678C28.8904 16.5097 28.8904 12.513 28.8904 8.45487C28.8904 7.96298 29.0134 7.65554 29.5053 7.4096C31.8418 6.05688 34.1783 4.70417 36.5148 3.41294C36.7607 3.28997 37.0681 3.16699 37.3756 3.16699C37.56 3.16699 37.7445 3.35145 37.929 3.47443C37.806 3.5974 37.7445 3.78186 37.56 3.90484C36.0844 4.76565 34.6702 5.62647 33.1945 6.4258C32.3337 6.9177 31.4728 7.47108 30.5505 7.96298C30.0586 8.20893 29.9357 8.51636 29.9357 9.06974C29.9357 13.0664 29.9357 17.0631 29.9357 21.0597C29.9357 21.3057 29.9357 21.5516 29.9357 21.859L29.8742 21.7976Z" fill="#C2A362"/>
<path d="M33.6866 1.50705C31.0427 3.04422 28.5217 4.51991 26.0008 5.93411C25.8778 5.9956 25.6318 6.11857 25.5089 6.05709C25.2629 6.05709 25.017 5.87262 24.8325 5.74965C24.9555 5.56519 25.0785 5.31924 25.2629 5.25776C27.6609 3.84355 29.9974 2.49084 32.3954 1.07664C33.0103 0.707719 33.2562 1.07664 33.7481 1.44556L33.6866 1.50705Z" fill="#C2A362"/>
<path d="M12.0428 7.22525C11.5509 8.70094 11.059 9.99217 10.5671 11.3449C10.0753 12.7591 9.52187 14.1118 9.09146 15.526C8.96848 15.8949 8.96848 16.4483 9.09146 16.7557C9.39889 17.2476 9.95228 17.0632 10.4442 16.8787C11.3665 16.5098 12.0428 15.8949 12.3503 14.9726C13.3341 12.2672 14.3179 9.50027 15.3016 6.79484C15.9165 5.1347 17.1463 4.02793 18.8064 3.47455C19.7287 3.16711 20.4665 3.35157 21.0814 4.1509C23.7868 7.40971 26.4923 10.6685 29.2592 13.8658C29.8126 14.5422 29.9355 15.1571 29.6281 15.9564C28.6443 18.6003 27.722 21.3058 26.7382 23.9497C26.4923 24.6876 25.6315 24.8105 25.1396 24.2572C22.4341 21.0598 19.7287 17.8625 17.0233 14.6037C16.8388 14.4192 16.8388 13.9888 16.9003 13.7429C17.7611 11.2219 18.6834 8.70094 19.6057 6.17997C19.7902 5.68808 20.0976 5.07321 19.6057 4.6428C19.0524 4.21239 18.4375 4.45834 17.9456 4.70429C17.2077 5.07321 16.7158 5.62659 16.4084 6.42592C15.4246 9.06986 14.5023 11.7753 13.5185 14.4192C13.3955 14.8496 13.5185 15.0956 13.7645 15.3415C16.4084 18.4774 18.9909 21.6132 21.6963 24.6876C22.1267 25.1795 22.1267 25.5484 21.7578 26.0403C21.0199 27.147 20.0361 27.9464 18.7449 28.3153C17.8226 28.6227 17.0848 28.4383 16.4084 27.6389C13.703 24.3801 10.9976 21.1213 8.23064 17.924C7.67726 17.2476 7.55428 16.6328 7.86172 15.8334C8.84551 13.1895 9.8293 10.4841 10.7516 7.84012C10.9976 7.22525 11.428 7.28674 12.0428 7.22525Z" fill="#C2A362"/>
<path d="M24.3405 24.8724C23.6641 25.1799 23.2337 25.0569 22.8033 24.565C20.2209 21.4291 17.6384 18.3548 14.9945 15.2804C14.687 14.9115 14.5641 14.5426 14.7485 14.1122C15.6708 11.5912 16.5931 9.07026 17.5154 6.54929C17.6384 6.24186 17.8229 5.99591 18.0073 5.81145C18.1303 5.68848 18.3763 5.74996 18.6222 5.68848C18.6222 5.87294 18.6222 6.0574 18.6222 6.24186C18.0688 7.84052 17.5154 9.43918 16.9006 10.9764C16.5317 11.9601 16.2242 12.8825 15.8553 13.8662C15.6708 14.3581 15.7323 14.7271 16.1012 15.096C18.6837 18.1703 21.2662 21.1832 23.8486 24.2575C24.0331 24.442 24.156 24.6265 24.3405 24.8724Z" fill="#C2A362"/>
<path d="M14.2564 6.91797C13.2111 9.80786 12.2273 12.5133 11.2435 15.2802C11.2435 15.4647 11.1205 15.6491 10.9361 15.7106C10.7516 15.8336 10.4442 15.8951 10.1982 15.9566C10.1982 15.7106 10.1367 15.4647 10.1982 15.2802C11.1205 12.6977 12.0428 10.1153 12.9651 7.53284C13.2111 6.85648 13.6415 6.97946 14.1949 6.91797H14.2564Z" fill="#C2A362"/>
<path d="M1.34346 25.1796C1.89685 26.5938 2.38874 27.9465 2.81915 29.2992C3.31105 30.7134 3.80294 32.1276 4.35633 33.4803C4.4793 33.8492 4.84822 34.2796 5.21714 34.4026C5.77053 34.5871 6.07796 34.0952 6.32391 33.6648C6.8158 32.8039 6.93878 31.8816 6.56986 30.9593C5.58607 28.2539 4.54079 25.487 3.55699 22.7816C2.94212 21.1214 3.18807 19.5227 4.11038 17.9856C4.60227 17.1862 5.27863 16.8173 6.32391 17.0018C10.505 17.7396 14.6861 18.4775 18.8673 19.2153C19.7281 19.3383 20.22 19.7687 20.5274 20.568C21.5112 23.212 22.495 25.9174 23.4788 28.5613C23.7247 29.2992 23.1713 29.9755 22.4335 29.7911C18.3139 29.0532 14.1942 28.3769 10.0131 27.639C9.76718 27.639 9.45975 27.2701 9.33677 27.0242C8.41447 24.5032 7.49216 21.9822 6.56986 19.4613C6.3854 18.9694 6.26242 18.293 5.58606 18.293C4.90971 18.293 4.60227 18.9079 4.35633 19.4613C4.04889 20.1991 3.9874 20.9369 4.29484 21.7363C5.27863 24.3802 6.26242 27.0856 7.18473 29.7296C7.3077 30.16 7.61514 30.2215 7.98406 30.283C11.9807 30.9593 16.0389 31.6972 20.0355 32.3735C20.6504 32.4965 20.8963 32.7424 20.9578 33.3573C21.0808 34.71 20.8348 35.9398 20.1585 37.0465C19.6051 37.8459 18.9287 38.2148 17.8835 38.0303C13.7023 37.231 9.52123 36.5546 5.34012 35.8168C4.4793 35.6938 3.9874 35.2634 3.67997 34.4641C2.69618 31.8201 1.71238 29.1147 0.728593 26.4708C0.482645 25.8559 0.913054 25.61 1.28198 25.1796H1.34346Z" fill="#C2A362"/>
<path d="M22.1259 30.7747C21.8184 31.451 21.388 31.6355 20.7731 31.5125C16.7765 30.7746 12.8413 30.0983 8.84466 29.4219C8.35277 29.3605 8.10682 29.1145 7.92236 28.6226C7.00005 26.1016 6.07775 23.5807 5.15544 21.0597C5.03247 20.7523 5.03247 20.4448 5.03247 20.1374C5.03247 19.9529 5.27842 19.83 5.40139 19.6455C5.52437 19.7685 5.70883 19.8915 5.77032 20.0759C6.38518 21.6746 6.93857 23.2118 7.55344 24.8104C7.92236 25.7942 8.29128 26.7165 8.59872 27.7003C8.78318 28.1922 9.02912 28.4381 9.58251 28.4996C13.5177 29.176 17.4528 29.8523 21.388 30.5287C21.634 30.5287 21.8799 30.5902 22.1873 30.6517L22.1259 30.7747Z" fill="#C2A362"/>
<path d="M2.81929 23.458C3.86457 26.3479 4.84836 29.0533 5.89364 31.8202C5.89364 32.0047 6.01662 32.1891 5.89364 32.3121C5.83216 32.558 5.64769 32.7425 5.52472 32.927C5.40175 32.7425 5.1558 32.6195 5.09431 32.4351C4.11052 29.8526 3.18822 27.2702 2.20442 24.6877C1.95848 24.0728 2.38888 23.8269 2.75781 23.3965L2.81929 23.458Z" fill="#C2A362"/>
<path d="M4.72531 45.7782C6.07802 46.5161 7.30776 47.2539 8.5375 47.9303C9.82873 48.6681 11.12 49.4675 12.4112 50.1438C12.7801 50.3283 13.272 50.4513 13.6409 50.3283C14.1328 50.1438 14.1328 49.529 14.0098 49.0371C13.8254 48.0533 13.3335 47.3154 12.4727 46.8235C9.9517 45.3478 7.43073 43.9336 4.90977 42.4579C3.37259 41.5356 2.51178 40.1829 2.26583 38.4613C2.14285 37.539 2.45029 36.8011 3.37259 36.3093C7.06181 34.2187 10.751 32.0666 14.3788 29.9146C15.1166 29.4842 15.793 29.4842 16.5308 29.9146C18.9903 31.3288 21.4498 32.743 23.9092 34.1572C24.5856 34.5261 24.5856 35.3869 23.9092 35.8174C20.2815 37.9079 16.6538 40.06 13.0261 42.089C12.7801 42.212 12.3497 42.212 12.1652 42.089C9.82873 40.7978 7.49222 39.4451 5.15572 38.0924C4.66382 37.8464 4.17192 37.416 3.61854 37.8464C3.06516 38.2768 3.24962 38.9532 3.43408 39.5066C3.68003 40.3059 4.11044 40.9208 4.84828 41.2897C7.30776 42.7039 9.76724 44.1181 12.2267 45.5323C12.5956 45.7782 12.8416 45.6553 13.2105 45.4708C16.7153 43.4417 20.2815 41.4127 23.7863 39.3221C24.3397 39.0147 24.7086 39.0762 25.139 39.4451C26.0613 40.3674 26.7376 41.4742 26.8606 42.8269C26.9836 43.8107 26.6762 44.487 25.7539 45.0404C22.0646 47.131 18.3754 49.283 14.7477 51.4351C14.0098 51.8655 13.3335 51.8655 12.6571 51.4351C10.1976 50.0208 7.73817 48.6066 5.27869 47.1924C4.66382 46.885 4.84828 46.3931 4.84828 45.8397L4.72531 45.7782Z" fill="#C2A362"/>
<path d="M24.2167 36.6777C24.4011 37.4156 24.2167 37.7845 23.6633 38.1534C20.1585 40.1825 16.6538 42.2116 13.149 44.2406C12.7186 44.4866 12.3497 44.5481 11.9193 44.2406C9.58277 42.8879 7.24626 41.5352 4.97125 40.1825C4.7253 40.0595 4.47935 39.8136 4.29489 39.5676C4.17192 39.4447 4.29489 39.1372 4.29489 38.9528C4.47935 38.9528 4.66381 38.9528 4.84827 39.0757C6.32396 39.8751 7.79965 40.7359 9.21385 41.5967C10.0747 42.0886 10.997 42.5805 11.8578 43.1339C12.2882 43.4413 12.6571 43.3798 13.149 43.1339C16.5923 41.1048 20.0356 39.1372 23.5403 37.1081C23.7248 36.9852 23.9707 36.8622 24.2167 36.7392V36.6777Z" fill="#C2A362"/>
<path d="M4.72511 43.5029C7.36905 45.0401 9.89002 46.4543 12.411 47.93C12.534 47.9915 12.7184 48.1145 12.7799 48.2989C12.8414 48.5449 12.8414 48.7908 12.9029 49.0368C12.6569 49.0368 12.411 49.0368 12.2265 48.9138C9.82853 47.5611 7.49203 46.1469 5.09403 44.8556C4.47916 44.5482 4.66362 44.0563 4.72511 43.5029Z" fill="#C2A362"/>
<path d="M20.4662 59.3662C22.0033 59.1202 23.3561 58.8743 24.7703 58.5669C26.2459 58.3209 27.7216 58.075 29.1358 57.7675C29.5048 57.706 29.9967 57.3986 30.1811 57.0912C30.4271 56.5993 29.9967 56.1689 29.6277 55.8614C28.8899 55.2466 28.0291 55.0006 27.0453 55.1236C24.1554 55.6155 21.327 56.1689 18.4371 56.6608C16.654 56.9682 15.1168 56.4763 13.8256 55.2466C13.1492 54.6317 12.9033 53.8938 13.2722 52.9101C14.7479 48.9134 16.1621 44.9167 17.5763 40.9201C17.8837 40.1208 18.3756 39.6903 19.1749 39.5059C21.9419 39.014 24.7703 38.5221 27.5372 38.0302C28.275 37.9072 28.8284 38.5836 28.5825 39.2599C27.1683 43.1951 25.7541 47.1303 24.2784 51.0654C24.2169 51.3114 23.848 51.5573 23.602 51.6188C20.9581 52.1107 18.3141 52.6026 15.6702 53.033C15.1168 53.156 14.4404 53.156 14.3175 53.8324C14.1945 54.5087 14.7479 54.9391 15.2398 55.2466C15.9161 55.677 16.654 55.8614 17.4533 55.7385C20.2202 55.2466 23.0486 54.7547 25.877 54.2628C26.3074 54.2013 26.4304 53.9553 26.5534 53.5864C27.9061 49.7127 29.3203 45.9005 30.673 42.0269C30.8575 41.412 31.1649 41.2275 31.7798 41.289C33.1325 41.412 34.3007 41.8424 35.2845 42.7647C35.9609 43.4411 36.2068 44.1789 35.8379 45.1627C34.3622 49.1593 32.948 53.156 31.5338 57.1527C31.2264 57.952 30.7345 58.3824 29.9352 58.5054C27.1068 58.9973 24.3399 59.4892 21.5729 60.0425C20.8966 60.1655 20.7736 59.7351 20.4047 59.2432L20.4662 59.3662Z" fill="#C2A362"/>
<path d="M29.5665 39.9365C30.1814 40.3669 30.3044 40.7973 30.0584 41.4122C28.6442 45.2244 27.2915 48.9751 25.9388 52.7873C25.7543 53.2792 25.5084 53.4637 25.0165 53.5866C22.3726 54.017 19.7286 54.5089 17.0847 55.0008C16.7772 55.0008 16.4698 55.0008 16.1624 55.0008C15.9779 55.0008 15.9164 54.6934 15.7935 54.5089C15.9779 54.386 16.1009 54.263 16.2854 54.2015C17.9455 53.8941 19.6057 53.5866 21.2658 53.2792C22.2496 53.0947 23.2949 52.9103 24.2787 52.7258C24.832 52.6643 25.078 52.4184 25.2625 51.9265C26.6152 48.1758 27.9679 44.4251 29.3206 40.6744C29.3821 40.4284 29.5051 40.244 29.5665 39.9365Z" fill="#C2A362"/>
<path d="M19.0525 57.6446C22.0653 57.0912 24.9552 56.5993 27.7836 56.1074C27.9681 56.1074 28.1525 56.1074 28.2755 56.1074C28.46 56.2304 28.6444 56.4149 28.8289 56.5993C28.6444 56.7223 28.46 56.9068 28.2755 56.9068C25.5701 57.3987 22.8646 57.8905 20.1592 58.3824C19.4829 58.5054 19.3599 58.075 18.991 57.5831L19.0525 57.6446Z" fill="#C2A362"/>
<path d="M41.3712 59.6737C42.355 58.5054 43.2773 57.3987 44.1381 56.3534C45.1219 55.1851 46.0442 54.0784 46.9665 52.9101C47.2125 52.6027 47.397 52.1108 47.3355 51.7419C47.2125 51.1885 46.5976 51.127 46.1057 51.127C45.1219 51.127 44.2611 51.4959 43.6463 52.2338C41.8016 54.4473 39.8955 56.7223 38.0509 58.9358C36.8827 60.2886 35.407 60.9034 33.6239 60.8419C32.7016 60.8419 32.0252 60.35 31.7178 59.4277C30.3036 55.4311 28.8279 51.4344 27.3522 47.4993C27.0448 46.6999 27.1677 46.0236 27.7211 45.4087C29.5657 43.2567 31.3489 41.0431 33.1935 38.8911C33.6854 38.2762 34.5462 38.4607 34.7921 39.1985C36.2678 43.1337 37.682 47.0689 39.0962 51.004C39.1577 51.25 39.0962 51.6804 38.9118 51.8648C37.1901 53.9554 35.4685 55.9845 33.7468 58.075C33.3779 58.5054 32.886 58.9358 33.2549 59.5507C33.6239 60.1656 34.2387 60.1041 34.8536 60.0426C35.6529 59.9196 36.3293 59.6122 36.8827 58.9973C38.7273 56.8453 40.5104 54.6318 42.355 52.4797C42.6625 52.1723 42.601 51.8648 42.478 51.4959C41.0638 47.6837 39.7111 43.81 38.2354 39.9979C37.9894 39.383 38.1124 39.0755 38.6043 38.7066C39.7111 37.9073 40.8793 37.4769 42.232 37.5999C43.2158 37.5999 43.8307 38.0303 44.1996 39.0755C45.6138 43.0722 47.0895 47.0689 48.5652 51.004C48.8726 51.8034 48.7497 52.4797 48.1963 53.0946C46.3517 55.2466 44.5686 57.4602 42.7239 59.6122C42.2935 60.1656 41.8631 59.8581 41.3097 59.7967L41.3712 59.6737Z" fill="#C2A362"/>
<path d="M35.7757 38.8916C36.575 38.8301 36.8824 39.076 37.1284 39.6909C38.4811 43.5031 39.8953 47.3153 41.3095 51.066C41.494 51.5579 41.4325 51.8653 41.125 52.2342C39.4034 54.2633 37.6818 56.3539 35.9601 58.3829C35.7757 58.6289 35.5297 58.8134 35.2223 58.9363C35.0378 58.9978 34.7919 58.8748 34.6074 58.8134C34.6074 58.6289 34.6689 58.4444 34.7919 58.26C35.8372 56.9687 36.9439 55.6775 38.0507 54.3863C38.727 53.587 39.3419 52.7876 40.0183 52.0498C40.3872 51.6194 40.4487 51.3119 40.2642 50.82C38.85 47.0693 37.4973 43.3186 36.1446 39.5679C36.0831 39.322 35.9601 39.1375 35.8986 38.8301L35.7757 38.8916Z" fill="#C2A362"/>
<path d="M39.1579 59.2438C41.1255 56.9073 42.9701 54.6938 44.8762 52.4188C44.9992 52.2958 45.1222 52.1113 45.3066 52.1113C45.5526 52.1113 45.7985 52.1113 46.0445 52.1113C45.983 52.2958 45.983 52.6032 45.7985 52.7262C44.0769 54.8168 42.2938 56.9688 40.5106 59.0594C40.0802 59.6127 39.6498 59.3668 39.0964 59.1823L39.1579 59.2438Z" fill="#C2A362"/>
<path d="M57.5423 46.5163C57.5423 44.9791 57.5423 43.5649 57.5423 42.1507C57.5423 40.675 57.5423 39.1993 57.5423 37.6622C57.5423 37.2932 57.3579 36.7399 57.0504 36.4939C56.62 36.125 56.1281 36.4939 55.7592 36.8014C55.0214 37.4162 54.591 38.277 54.591 39.2608C54.591 42.1507 54.591 45.1021 54.591 47.992C54.591 49.7751 53.7916 51.1893 52.4389 52.2961C51.7011 52.8495 50.9017 52.9724 50.0409 52.419C46.4132 50.267 42.724 48.1764 39.0347 46.0859C38.2969 45.6555 37.928 45.1021 37.928 44.2413C37.928 41.4129 37.928 38.5845 37.928 35.6946C37.928 34.8953 38.6658 34.4648 39.3422 34.8953C42.9699 36.9858 46.5976 39.0764 50.2254 41.1669C50.4713 41.2899 50.6558 41.6588 50.6558 41.9663C50.6558 44.6717 50.6558 47.3156 50.6558 50.0211C50.6558 50.5744 50.5328 51.2508 51.2092 51.4353C51.8855 51.6812 52.3774 51.2508 52.7463 50.7589C53.2997 50.144 53.6072 49.4677 53.6072 48.6683C53.6072 45.8399 53.6072 43.0115 53.6072 40.1216C53.6072 39.6912 53.3612 39.5068 53.0538 39.3223C49.4875 37.2933 45.9828 35.2642 42.4165 33.2351C41.8631 32.9277 41.7402 32.5588 41.8631 32.0054C42.2321 30.7141 42.8469 29.6074 43.8922 28.808C44.6915 28.2547 45.4294 28.1317 46.3517 28.6236C49.9794 30.7756 53.6686 32.8662 57.3579 34.9567C58.0957 35.3872 58.4031 35.9405 58.4031 36.8014C58.4031 39.6298 58.4031 42.4582 58.4031 45.348C58.4031 46.0244 57.9727 46.0859 57.4194 46.3933L57.5423 46.5163Z" fill="#C2A362"/>
<path d="M39.896 34.1575C40.4494 33.6042 40.8798 33.6042 41.4332 33.9116C44.9379 35.9407 48.4427 37.9697 51.9474 39.9373C52.3779 40.1833 52.5623 40.4907 52.5623 40.9826C52.5623 43.688 52.5623 46.332 52.5623 49.0374C52.5623 49.3448 52.5008 49.6523 52.3164 49.8982C52.2549 50.0827 51.9474 50.0827 51.763 50.2056C51.7015 50.0212 51.5785 49.8367 51.5785 49.6523C51.5785 47.9921 51.5785 46.2705 51.5785 44.6103C51.5785 43.565 51.5785 42.5813 51.5785 41.536C51.5785 40.9826 51.3941 40.6752 50.9637 40.4292C47.4589 38.4616 44.0156 36.4326 40.5724 34.465C40.3879 34.342 40.1419 34.219 39.896 34.0961V34.1575Z" fill="#C2A362"/>
<path d="M55.575 47.6231C55.575 44.5487 55.575 41.6588 55.575 38.7075C55.575 38.523 55.575 38.3385 55.6979 38.2156C55.8824 38.0311 56.0668 37.9081 56.3128 37.7852C56.3743 37.9696 56.5587 38.2156 56.5587 38.4C56.5587 41.1669 56.5587 43.8724 56.5587 46.6393C56.5587 47.3156 56.1283 47.3771 55.575 47.6231Z" fill="#C2A362"/>
<path d="M61.4163 25.979C60.4325 24.8108 59.5102 23.704 58.5879 22.6587C57.6041 21.552 56.6818 20.3837 55.698 19.2769C55.452 18.9695 54.9601 18.7236 54.5912 18.7236C54.0378 18.7236 53.8534 19.3384 53.7919 19.8303C53.6074 20.8141 53.7919 21.6749 54.4682 22.4743C56.3128 24.6878 58.2189 26.9013 60.0635 29.1764C61.2318 30.5291 61.5392 32.1277 61.1703 33.8494C60.9858 34.7717 60.4325 35.3251 59.4487 35.5095C55.2676 36.2474 51.0864 36.9852 46.9053 37.723C46.0445 37.9075 45.4296 37.6616 44.8763 37.0467C43.0316 34.8946 41.187 32.6811 39.4039 30.5291C38.912 29.9142 39.2195 29.1149 39.9573 28.9919C44.0769 28.254 48.1965 27.5162 52.3777 26.7784C52.6236 26.7784 53.054 26.9013 53.177 27.0858C54.9601 29.1149 56.6818 31.2054 58.4034 33.2345C58.7723 33.6649 59.0797 34.2183 59.7561 33.9723C60.4325 33.7264 60.4939 33.05 60.4939 32.4967C60.4939 31.6973 60.3095 30.9595 59.8176 30.3446C57.973 28.1926 56.1284 25.979 54.3452 23.827C54.0378 23.4581 53.7919 23.5196 53.4229 23.581C49.4263 24.3189 45.3681 24.9952 41.3715 25.7331C40.7566 25.8561 40.4492 25.7331 40.2032 25.1182C39.6499 23.8885 39.4039 22.6587 39.7113 21.3675C39.9573 20.4452 40.4492 19.8303 41.4945 19.6459C45.6756 18.9695 49.8567 18.1702 54.0378 17.4323C54.8986 17.2479 55.5135 17.4938 56.0054 18.1702C57.85 20.3222 59.6331 22.5358 61.4777 24.6878C61.9081 25.1797 61.6007 25.5486 61.4163 26.102V25.979Z" fill="#C2A362"/>
<path d="M40.0186 27.8854C40.0186 27.0861 40.3875 26.8401 41.0638 26.7172C45.0605 26.0408 48.9957 25.303 52.9923 24.5651C53.4842 24.5036 53.7916 24.5651 54.1606 24.9955C55.8822 27.0861 57.6038 29.1151 59.3255 31.2057C59.5099 31.4517 59.6329 31.7591 59.6944 32.005C59.6944 32.1895 59.5714 32.374 59.5099 32.5584C59.3255 32.4969 59.141 32.4354 59.018 32.251C57.9113 30.9598 56.866 29.6685 55.7592 28.3773C55.0829 27.578 54.4065 26.8401 53.7916 26.0408C53.4842 25.6104 53.1153 25.4874 52.6234 25.6104C48.6882 26.3482 44.7531 27.0246 40.8179 27.701C40.5719 27.701 40.326 27.7624 40.0186 27.8239V27.8854Z" fill="#C2A362"/>
<path d="M60.6166 28.131C58.649 25.7945 56.7429 23.5809 54.8983 21.3059C54.7753 21.1829 54.6523 20.9985 54.6523 20.814C54.6523 20.5681 54.7753 20.3221 54.8368 20.0762C55.0213 20.1991 55.2672 20.2606 55.3902 20.3836C57.1733 22.4742 58.9564 24.5647 60.7396 26.6553C61.17 27.1472 60.8625 27.5161 60.6166 28.0695V28.131Z" fill="#C2A362"/>
<path d="M51.2712 7.77901C49.734 7.53306 48.3813 7.28712 46.9671 7.04117C45.4914 6.79522 44.0157 6.48779 42.54 6.30333C42.1711 6.30333 41.6177 6.30332 41.3103 6.54927C40.8799 6.91819 41.1258 7.47158 41.3718 7.90199C41.8637 8.7628 42.6015 9.31619 43.5853 9.43916C46.4752 9.93106 49.3036 10.423 52.1935 10.9149C53.9766 11.2223 55.2064 12.2676 56.0672 13.8047C56.4976 14.6656 56.4361 15.4034 55.7597 16.2027C52.9928 19.4615 50.2874 22.7204 47.582 25.9792C47.0286 26.6555 46.4137 26.9015 45.6144 26.717C42.786 26.2251 40.0191 25.7332 37.1907 25.2413C36.4528 25.1183 36.1454 24.319 36.6373 23.7041C39.3427 20.5068 41.9867 17.248 44.7536 14.0507C44.938 13.8662 45.307 13.7433 45.6144 13.8047C48.2583 14.2351 50.9023 14.727 53.5462 15.1575C54.0996 15.2804 54.7145 15.4649 55.0834 14.85C55.4523 14.2351 55.0834 13.6818 54.7145 13.1899C54.2226 12.575 53.6077 12.1446 52.8084 11.9601C49.98 11.4682 47.2131 10.9763 44.4461 10.4844C44.0157 10.423 43.8313 10.6074 43.5853 10.8534C40.9414 13.9892 38.3589 17.125 35.715 20.2609C35.2846 20.7528 34.9771 20.8143 34.4238 20.5683C33.194 20.0149 32.2717 19.2156 31.6568 17.9859C31.2264 17.125 31.2264 16.3257 31.9028 15.5264C34.6697 12.3291 37.3751 9.07024 40.0806 5.74994C40.6339 5.07359 41.2488 4.88912 42.0481 5.0121C44.8151 5.50399 47.6435 5.99589 50.4719 6.48779C51.1482 6.61076 51.1482 7.04117 51.3327 7.59455L51.2712 7.77901Z" fill="#C2A362"/>
<path d="M36.0228 22.9658C35.5923 22.3509 35.5923 21.9205 36.0228 21.3671C38.6667 18.2928 41.2491 15.157 43.8316 12.0826C44.139 11.7137 44.4465 11.5292 44.9384 11.6522C47.5823 12.1441 50.2263 12.5745 52.8702 13.0664C53.1776 13.0664 53.4851 13.2509 53.6695 13.4353C53.7925 13.5583 53.7925 13.8042 53.854 13.9887C53.6695 13.9887 53.4851 14.1117 53.3006 14.1117C51.6405 13.8657 49.9803 13.5583 48.3202 13.2509C47.3364 13.0664 46.2911 12.9434 45.3073 12.6975C44.7539 12.5745 44.4465 12.6975 44.139 13.1279C41.6181 16.2022 39.0356 19.2766 36.4532 22.3509C36.3302 22.5354 36.1457 22.7199 35.9613 22.9658H36.0228Z" fill="#C2A362"/>
<path d="M52.0092 9.93097C48.9963 9.37759 46.1065 8.8857 43.2781 8.3938C43.0936 8.3938 42.9091 8.33231 42.7862 8.20934C42.6017 8.02488 42.5402 7.77893 42.4172 7.53298C42.6632 7.53298 42.8476 7.34852 43.0936 7.41001C45.799 7.84042 48.5044 8.33231 51.2099 8.82421C51.8862 8.94718 51.8862 9.37759 52.0092 9.93097Z" fill="#C2A362"/>
</svg>
